<svg id="a" xmlns="http://www.w3.org/2000/svg" width="3.16in" height=".99in" viewBox="0 0 227.47 71.07"><g><path d="M11.32,3.29h-3.9V14.5H3.88V3.29H0V.36H11.32V3.29Z" fill="#000"></path><path d="M15.66,5.01c.8-1.05,1.78-1.62,3.18-1.62,2.28,0,3.58,1.47,3.58,4.06v7.05h-3.36v-6.14c0-1.41-.36-2.12-1.48-2.12s-1.92,.95-1.92,2.38v5.88h-3.36V.36h3.36V5.01Z" fill="#000"></path><path d="M34.57,9.31v.61h-7.32c.1,1.56,1,2.32,2.34,2.32,1.12,0,1.78-.57,2.26-1.33l2.64,1.27c-1.04,1.66-2.7,2.61-5.08,2.61-3.48,0-5.62-2.38-5.62-5.7s2-5.7,5.42-5.7,5.36,2.26,5.36,5.92Zm-7.34-1.42h3.94c-.08-1.49-.82-2.12-1.98-2.12-1.04,0-1.86,.61-1.96,2.12Z" fill="#000"></path><path d="M52.13,10.4c0,2.34-1.6,4.1-5.86,4.1h-6V.36h5.22c4.34,0,5.88,1.37,5.88,3.6,0,1.7-.96,2.53-2.46,2.91,2.24,.44,3.22,1.64,3.22,3.54Zm-8.34-7.29v2.87h2.24c.96,0,1.74-.38,1.74-1.45s-.78-1.42-2.06-1.42h-1.92Zm4.68,7.03c0-1.46-1.18-1.74-2.12-1.74h-2.56v3.37h2.6c1.18,0,2.08-.46,2.08-1.64Z" fill="#000"></path><path d="M63.43,14.5h-3.22v-1.31c-.82,1.07-1.86,1.6-3.24,1.6-1.98,0-3.54-1.15-3.54-3.78V3.7h3.36v6.49c0,1.25,.46,1.7,1.4,1.7,1.14,0,1.88-.89,1.88-2.2V3.7h3.36V14.5Z" fill="#000"></path><path d="M72.34,3.45v3.23c-.38-.02-.52-.02-.66-.02-1.62,0-2.9,.69-2.9,3.64v4.2h-3.36V3.7h3.22v1.74c.74-1.5,1.76-2.04,2.88-2.04,.28,0,.54,.02,.82,.06Z" fill="#000"></path><path d="M83.42,7.45v7.05h-3.36v-6.08c0-1.47-.36-2.18-1.48-2.18s-1.92,.95-1.92,2.38v5.88h-3.36V3.7h3.22v1.46c.8-1.23,1.96-1.76,3.38-1.76,2.22,0,3.52,1.46,3.52,4.06Z" fill="#000"></path><path d="M95.56,9.31v.61h-7.32c.1,1.56,1,2.32,2.34,2.32,1.12,0,1.78-.57,2.26-1.33l2.64,1.27c-1.04,1.66-2.7,2.61-5.08,2.61-3.48,0-5.62-2.38-5.62-5.7s2-5.7,5.42-5.7,5.36,2.26,5.36,5.92Zm-7.34-1.42h3.94c-.08-1.49-.82-2.12-1.98-2.12-1.04,0-1.86,.61-1.96,2.12Z" fill="#000"></path><path d="M106.16,5.03l-1.64,1.86c-.94-.73-1.82-1.09-2.88-1.09s-1.48,.32-1.48,.83c0,.57,.34,.75,2.5,1.17,2.54,.48,3.74,1.54,3.74,3.5,0,2.06-1.82,3.5-5,3.5-2.48,0-4.04-.73-5.3-1.84l1.6-1.94c1.12,.97,2.24,1.31,3.3,1.31,1.28,0,1.86-.34,1.86-.89s-.2-.79-2.4-1.21c-2.54-.48-3.78-1.47-3.78-3.37,0-2.22,2.1-3.46,4.82-3.46,2.06,0,3.62,.69,4.66,1.64Z" fill="#000"></path><path d="M124.6,4.2l-3.4,.87c-.58-1.43-1.42-2.14-2.92-2.14-2.04,0-3.3,1.6-3.3,4.46s1.18,4.55,3.36,4.55c1.7,0,2.62-.87,3.22-2.46l3.34,1.01c-1.12,2.89-3.68,4.38-6.68,4.38-3.54,0-6.88-2.16-6.88-7.46s3.34-7.41,6.92-7.41c2.68,0,5.16,1.11,6.34,4.2Z" fill="#000"></path><path d="M136.58,9.31v.61h-7.32c.1,1.56,1,2.32,2.34,2.32,1.12,0,1.78-.57,2.26-1.33l2.64,1.27c-1.04,1.66-2.7,2.61-5.08,2.61-3.48,0-5.62-2.38-5.62-5.7s2-5.7,5.42-5.7,5.36,2.26,5.36,5.92Zm-7.34-1.42h3.94c-.08-1.49-.82-2.12-1.98-2.12-1.04,0-1.86,.61-1.96,2.12Z" fill="#000"></path><path d="M148.16,7.45v7.05h-3.36v-6.08c0-1.47-.36-2.18-1.48-2.18s-1.92,.95-1.92,2.38v5.88h-3.36V3.7h3.22v1.46c.8-1.23,1.96-1.76,3.38-1.76,2.22,0,3.52,1.46,3.52,4.06Z" fill="#000"></path><path d="M153.9,3.96h2.5v2.38h-2.5v4.45c0,.89,.26,1.29,1.2,1.29,.54,0,.96-.08,1.46-.2v2.54c-.7,.22-1.52,.36-2.42,.36-2.7,0-3.6-1.29-3.6-3.47V6.34h-1.44V3.96h1.44V1.17h3.36V3.96Z" fill="#000"></path><path d="M168.01,9.31v.61h-7.32c.1,1.56,1,2.32,2.34,2.32,1.12,0,1.78-.57,2.26-1.33l2.64,1.27c-1.04,1.66-2.7,2.61-5.08,2.61-3.48,0-5.62-2.38-5.62-5.7s2-5.7,5.42-5.7,5.36,2.26,5.36,5.92Zm-7.34-1.42h3.94c-.08-1.49-.82-2.12-1.98-2.12-1.04,0-1.86,.61-1.96,2.12Z" fill="#000"></path><path d="M176.39,3.45v3.23c-.38-.02-.52-.02-.66-.02-1.62,0-2.9,.69-2.9,3.64v4.2h-3.36V3.7h3.22v1.74c.74-1.5,1.76-2.04,2.88-2.04,.28,0,.54,.02,.82,.06Z" fill="#000"></path><path d="M7.76,24.4v2.36c-.54-.16-1.24-.3-1.86-.3-.78,0-1.1,.2-1.1,.89v.61h2.54v2.38h-2.54v8.16H1.44v-8.16H0v-2.38H1.44v-.87c0-1.86,1.1-3.11,3.72-3.11,.98,0,1.9,.2,2.6,.42Z" fill="#000"></path><path d="M19.33,33.09c0,3.41-2.24,5.7-5.78,5.7s-5.78-2.36-5.78-5.7,2.16-5.7,5.78-5.7,5.78,2.44,5.78,5.7Zm-8.04-.04c0,2.06,.84,3.09,2.26,3.09s2.24-1.03,2.24-3.09-.88-3.01-2.24-3.01-2.26,.91-2.26,3.01Z" fill="#000"></path><path d="M27.69,27.45v3.23c-.38-.02-.52-.02-.66-.02-1.62,0-2.9,.69-2.9,3.64v4.2h-3.36v-10.81h3.22v1.74c.74-1.5,1.76-2.04,2.88-2.04,.28,0,.54,.02,.82,.06Z" fill="#000"></path><path d="M32.01,36.24l2.22-2.12c1.18,1.15,2.48,1.86,4.36,1.86,1.44,0,2.42-.54,2.42-1.43s-.48-1.29-3.24-1.82c-3.42-.67-5.06-1.84-5.06-4.49s2.28-4.26,5.66-4.26c2.8,0,4.76,1.05,6.06,2.53l-2.32,1.96c-.8-.87-1.88-1.58-3.68-1.58-1.38,0-2.1,.46-2.1,1.27s.52,1.21,3.12,1.66c3.6,.63,5.22,1.86,5.22,4.48,0,2.97-2.5,4.59-6.16,4.59-2.78,0-5-1.01-6.5-2.65Z" fill="#000"></path><path d="M57.07,33.09c0,3.41-2.24,5.7-5.78,5.7s-5.78-2.36-5.78-5.7,2.16-5.7,5.78-5.7,5.78,2.44,5.78,5.7Zm-8.04-.04c0,2.06,.84,3.09,2.26,3.09s2.24-1.03,2.24-3.09-.88-3.01-2.24-3.01-2.26,.91-2.26,3.01Z" fill="#000"></path><path d="M68.63,30.38l-2.92,1.15c-.34-.97-1.04-1.5-1.98-1.5-1.34,0-2.24,.93-2.24,3.03s.88,3.07,2.26,3.07c1.18,0,1.76-.75,2.08-1.68l2.88,1.13c-.9,1.9-2.58,3.19-5.16,3.19-3.48,0-5.58-2.36-5.58-5.68s2.16-5.72,5.58-5.72c2.52,0,4.16,1.11,5.08,2.99Z" fill="#000"></path><path d="M73.39,24.42c0,1.03-.9,1.84-1.92,1.84s-1.92-.81-1.92-1.84,.9-1.84,1.92-1.84,1.92,.81,1.92,1.84Zm-.24,14.08h-3.36v-10.81h3.36v10.81Z" fill="#000"></path><path d="M84.47,30.81v5.29c0,.91,.06,1.64,.36,2.4h-3.26c-.18-.32-.3-.69-.38-1.07-.74,.99-1.82,1.35-3.08,1.35-2.26,0-3.54-1.39-3.54-3.31,0-2.08,1.22-3.31,4.52-3.74l2.02-.24v-.49c0-.97-.26-1.31-1.34-1.31-1.02,0-1.42,.36-1.46,1.25h-3.32c.08-2.34,1.84-3.56,4.84-3.56,3.34,0,4.64,1.25,4.64,3.41Zm-4.6,2.89c-1.38,.2-1.88,.63-1.88,1.41,0,.71,.42,1.13,1.22,1.13,1.06,0,1.9-.73,1.9-1.78v-.95l-1.24,.18Z" fill="#000"></path><path d="M89.78,38.5h-3.36v-14.14h3.36v14.14Z" fill="#000"></path><path d="M108.7,28.2l-3.4,.87c-.58-1.43-1.42-2.14-2.92-2.14-2.04,0-3.3,1.6-3.3,4.46s1.18,4.55,3.36,4.55c1.7,0,2.62-.87,3.22-2.46l3.34,1.01c-1.12,2.89-3.68,4.38-6.68,4.38-3.54,0-6.88-2.16-6.88-7.46s3.34-7.41,6.92-7.41c2.68,0,5.16,1.11,6.34,4.2Z" fill="#000"></path><path d="M113.6,29.01c.8-1.05,1.78-1.62,3.18-1.62,2.28,0,3.58,1.47,3.58,4.06v7.05h-3.36v-6.14c0-1.41-.36-2.12-1.48-2.12s-1.92,.95-1.92,2.38v5.88h-3.36v-14.14h3.36v4.65Z" fill="#000"></path><path d="M131.64,30.81v5.29c0,.91,.06,1.64,.36,2.4h-3.26c-.18-.32-.3-.69-.38-1.07-.74,.99-1.82,1.35-3.08,1.35-2.26,0-3.54-1.39-3.54-3.31,0-2.08,1.22-3.31,4.52-3.74l2.02-.24v-.49c0-.97-.26-1.31-1.34-1.31-1.02,0-1.42,.36-1.46,1.25h-3.32c.08-2.34,1.84-3.56,4.84-3.56,3.34,0,4.64,1.25,4.64,3.41Zm-4.6,2.89c-1.38,.2-1.88,.63-1.88,1.41,0,.71,.42,1.13,1.22,1.13,1.06,0,1.9-.73,1.9-1.78v-.95l-1.24,.18Z" fill="#000"></path><path d="M143.7,31.45v7.05h-3.36v-6.08c0-1.47-.36-2.18-1.48-2.18s-1.92,.95-1.92,2.38v5.88h-3.36v-10.81h3.22v1.46c.8-1.23,1.96-1.76,3.38-1.76,2.22,0,3.52,1.46,3.52,4.06Z" fill="#000"></path><path d="M156.19,29.27c-.72,0-1.08,.04-1.5,.18,.36,.49,.5,1.05,.5,1.66,0,1.96-1.56,3.51-4.8,3.51-.8,0-1.46-.12-2.06-.32-.16,.18-.28,.38-.28,.61,0,.44,.3,.71,1.34,.71h1.74c3.18,0,4.7,1.37,4.7,3.29,0,2.14-1.86,3.47-5.64,3.47-4.06,0-5.28-1.17-5.28-2.75,0-.91,.54-1.66,1.54-2.1-.76-.44-1.06-1.13-1.06-1.82,0-.77,.54-1.51,1.36-2.04-.94-.59-1.52-1.54-1.52-2.65,0-2.04,1.62-3.64,4.92-3.64,1.18,0,2.14,.24,2.88,.59,.7-.85,1.7-1.39,3.16-1.41v2.71Zm-7.96,8.91c-.38,.26-.54,.57-.54,.93,0,.65,.44,1.03,2.38,1.03,1.68,0,2.32-.38,2.32-1.05s-.52-.91-1.82-.91h-2.34Zm.34-7.21c0,.83,.6,1.37,1.66,1.37s1.68-.53,1.68-1.39-.6-1.41-1.66-1.41-1.68,.57-1.68,1.43Z" fill="#000"></path><path d="M167.34,33.31v.61h-7.32c.1,1.56,1,2.32,2.34,2.32,1.12,0,1.78-.57,2.26-1.33l2.64,1.27c-1.04,1.66-2.7,2.61-5.08,2.61-3.48,0-5.62-2.38-5.62-5.7s2-5.7,5.42-5.7,5.36,2.26,5.36,5.92Zm-7.34-1.42h3.94c-.08-1.49-.82-2.12-1.98-2.12-1.04,0-1.86,.61-1.96,2.12Z" fill="#000"></path></g><g><path d="M222,68.31l3.73-8.27c.73-1.63,.97-1.98,1.74-2.18v-.56h-3.91v.56c1.29,.28,1.43,.93,.84,2.32l-1.5,3.59-1.87-4.22c-.4-.93-.34-1.47,1.03-1.63v-.61h-5.21v.62c.62,.16,.85,.41,1.39,1.52l3.32,7.13-.55,1.19c-.32,.69-.61,1.21-.95,1.51-.24-.81-.7-1.25-1.41-1.25s-1.33,.48-1.33,1.41c0,.93,.76,1.62,1.65,1.62,1.27,0,2.06-.64,3.03-2.76m-5.3-2.49l-.3-.63c-.53,.24-1.01,.36-1.43,.36-.93,0-1.17-.47-1.17-1.13v-5.97h2.51v-1.13h-2.52v-1.84h-.36l-3.56,2.35v.63h1.45v6.48c.01,1.29,.75,1.98,2.2,1.98,1.13,0,2.24-.38,3.19-1.1m-7.53,.29c-1.23-.18-1.41-.43-1.41-1.52v-7.59h-.98l-2.91,1.91v.44h1.41v5.25c.01,1.09-.19,1.35-1.4,1.53v.61h5.29v-.62Zm-2.83-10.6c.83,0,1.51-.68,1.5-1.53,0-.75-.58-1.37-1.35-1.37-.87,0-1.53,.68-1.52,1.51,0,.77,.58,1.39,1.37,1.39m-3.45,8.31c0-1.84-1.53-2.42-2.96-2.87-1.41-.45-2.38-.75-2.38-1.78,0-.56,.41-1.07,1.23-1.07,1.01,0,1.9,.61,2.98,1.82l.52-.24-.76-2.46h-.32l-.36,.3c-.56-.24-1.19-.37-1.86-.37-2.1,0-3.47,1.22-3.46,3.04,0,1.84,1.53,2.38,2.96,2.85,1.41,.47,2.38,.75,2.38,1.8,0,.65-.49,1.15-1.45,1.15-1.33,0-2.34-.87-3.55-2.41l-.53,.2,.78,3.09h.34l.57-.42c.65,.32,1.39,.49,2.2,.49,2.02,0,3.69-1.2,3.68-3.12m-10.32,2.32c-1.29-.2-1.47-.47-1.47-1.7v-4.08c.39-.71,.76-1.23,1.16-1.59,0,.77,.54,1.27,1.21,1.27s1.33-.54,1.33-1.57c0-.87-.5-1.41-1.37-1.41-.97,0-1.72,.82-2.43,1.97v-2h-.88l-2.87,1.89v.44h1.37v5.27c.01,1.09-.17,1.37-1.3,1.53v.61h5.25v-.62Zm-12.42-5.37c0-1.61,.67-2.56,1.98-2.56,.91,0,1.49,.65,1.73,1.94l-3.69,1.28c-.02-.22-.02-.44-.02-.65m6.21,4.21l-.54-.42c-.53,.62-1.35,1.03-2.28,1.03-1.82,0-2.86-1.38-3.24-3.19l5.94-1.99c-.12-2.1-1.67-3.25-3.63-3.24-2.76,0-4.77,2.23-4.77,4.98s1.75,4.81,4.83,4.81c1.88,0,3.01-.84,3.68-1.99m-10.4-4.86c.73-1.63,.97-1.98,1.74-2.18v-.56h-3.91v.56c1.29,.28,1.43,.93,.84,2.32l-1.5,3.59-1.87-4.22c-.4-.93-.34-1.47,1.03-1.63v-.61h-5.21v.62c.62,.16,.87,.41,1.39,1.52l3.4,7.35h1.03l3.06-6.77Zm-9.05,6.06c-1.23-.18-1.41-.43-1.41-1.52v-7.59h-.98l-2.91,1.91v.44h1.41v5.25c.01,1.09-.19,1.35-1.4,1.53v.61h5.29v-.62Zm-2.83-10.6c.83,0,1.51-.68,1.5-1.53,0-.75-.58-1.37-1.35-1.37-.87,0-1.53,.68-1.52,1.51,0,.77,.58,1.39,1.37,1.39m-9.99,10.62c-1.13-.16-1.31-.43-1.31-1.52v-4.58c.98-.89,1.79-1.33,2.51-1.33,.97,0,1.25,.49,1.25,1.39v4.52c0,1.09-.17,1.37-1.3,1.53v.61h5.1v-.62c-1.13-.16-1.31-.43-1.31-1.52v-4.74c-.01-1.59-.69-2.71-2.69-2.71-1.23,0-2.44,.76-3.62,1.77v-1.9h-.92l-2.87,1.89v.44h1.37v5.27c.01,1.09-.17,1.37-1.3,1.53v.61h5.1v-.62Zm-21.63-11.62v5.95c.02,3.85,2.02,6.52,7.08,6.51s7.05-2.69,7.05-6.46v-4.78c-.01-2.32,.64-2.92,1.77-3.23v-.61h-4.8v.62c1.13,.32,1.79,.91,1.79,3.23v4.78c.01,3.35-1.75,4.9-5.08,4.91-3.31,0-5.1-1.54-5.1-4.89v-6.03c-.01-1.51,.42-1.77,1.67-1.95v-.65h-6.03v.66c1.25,.18,1.65,.43,1.65,1.94" fill="#000"></path><path d="M116.57,66.28c-1.13-.16-1.31-.43-1.31-1.52v-4.58c.98-.89,1.79-1.33,2.51-1.33,.97,0,1.25,.49,1.25,1.39v4.52c0,1.09-.17,1.37-1.3,1.53v.61h5.1v-.62c-1.13-.16-1.31-.43-1.31-1.52v-4.74c-.01-1.59-.69-2.71-2.69-2.71-1.23,0-2.44,.76-3.62,1.77v-1.9h-.92l-2.87,1.89v.44h1.37v5.27c.01,1.09-.17,1.37-1.3,1.53v.61h5.1v-.62Zm-7.89,.01c-1.29-.2-1.47-.47-1.47-1.7v-4.08c.39-.71,.76-1.23,1.16-1.59,0,.77,.54,1.27,1.21,1.27s1.33-.54,1.33-1.57c0-.87-.5-1.41-1.37-1.41-.97,0-1.72,.82-2.43,1.97v-2h-.88l-2.87,1.89v.44h1.37v5.27c.01,1.09-.17,1.37-1.3,1.53v.61h5.25v-.62Zm-12.42-5.37c0-1.61,.67-2.56,1.98-2.56,.91,0,1.49,.65,1.73,1.94l-3.69,1.28c-.02-.22-.02-.44-.02-.65m6.21,4.21l-.54-.42c-.53,.62-1.35,1.03-2.28,1.03-1.82,0-2.86-1.38-3.24-3.19l5.94-1.99c-.12-2.1-1.67-3.25-3.63-3.24-2.76,0-4.77,2.23-4.77,4.98s1.75,4.81,4.83,4.81c1.88,0,3.01-.84,3.68-1.99m-9.16,.91l-.3-.63c-.53,.24-1.01,.36-1.43,.36-.93,0-1.17-.47-1.17-1.13v-5.97h2.51v-1.13h-2.52v-1.84h-.36l-3.56,2.35v.63h1.45v6.48c.01,1.29,.75,1.98,2.2,1.98,1.13,0,2.24-.38,3.19-1.1m-7.5-2.01c0-1.84-1.53-2.42-2.96-2.87-1.41-.45-2.38-.75-2.38-1.78,0-.56,.41-1.07,1.23-1.07,1.01,0,1.9,.61,2.98,1.82l.52-.24-.76-2.46h-.32l-.36,.3c-.56-.24-1.19-.37-1.86-.37-2.1,0-3.47,1.22-3.46,3.04s1.53,2.38,2.96,2.85c1.41,.47,2.38,.75,2.38,1.8,0,.65-.49,1.15-1.45,1.15-1.33,0-2.34-.87-3.55-2.41l-.53,.2,.78,3.09h.34l.57-.42c.65,.32,1.39,.49,2.2,.49,2.02,0,3.69-1.2,3.68-3.12m-15.26,.4c0-1.01,.45-1.49,2.77-2.13v2.87c-.55,.44-1.04,.64-1.54,.64-.77,0-1.23-.41-1.23-1.39m4.37,2.65c.85,0,1.76-.4,2.36-.82l-.18-.55c-.97,.18-1.33,.04-1.33-.61v-5.29c-.01-1.59-.71-2.44-2.95-2.43-2.52,0-4.36,1.36-4.36,2.62,0,.61,.42,1.13,1.13,1.13,.81,0,1.21-.54,1.33-1.07,.12-.61-.08-1.07-.38-1.33,.5-.24,.99-.36,1.51-.36,.85,0,1.27,.3,1.27,1.07v1.98c-3.54,.88-5.17,1.65-5.16,3.54,0,1.45,.94,2.22,2.4,2.22,.93,0,2-.4,2.91-1.12,.14,.65,.6,1.03,1.45,1.03m-14.07-6.1c0-1.61,.67-2.56,1.98-2.56,.91,0,1.49,.65,1.73,1.94l-3.69,1.28c-.02-.22-.02-.44-.02-.65m6.21,4.21l-.54-.42c-.53,.62-1.35,1.03-2.28,1.03-1.82,0-2.86-1.38-3.24-3.19l5.94-1.99c-.12-2.1-1.67-3.25-3.63-3.24-2.76,0-4.77,2.23-4.77,4.98,0,2.74,1.75,4.81,4.83,4.81,1.88,0,3.01-.84,3.68-1.99m-15.78,1.2c-1.13-.16-1.31-.43-1.31-1.52v-4.6c.94-.87,1.67-1.31,2.51-1.31,.97,0,1.25,.49,1.25,1.39v4.52c0,1.09-.17,1.37-1.3,1.53v.61h5.1v-.62c-1.13-.16-1.31-.43-1.31-1.52v-4.74c-.01-1.59-.69-2.71-2.69-2.71-1.21,0-2.4,.72-3.57,1.71v-7.85h-.75l-3.19,2.09v.44h1.45l.02,11.08c0,1.09-.18,1.37-1.31,1.53v.61h5.1v-.62Zm-5.69-.27l-.3-.63c-.53,.24-1.01,.36-1.43,.36-.93,0-1.17-.47-1.17-1.13v-5.97h2.51v-1.13h-2.52v-1.84h-.36l-3.56,2.35v.63h1.45v6.48c.01,1.29,.75,1.98,2.2,1.98,1.13,0,2.24-.38,3.19-1.1m-9.71,.29c-1.29-.2-1.47-.47-1.47-1.7v-4.08c.39-.71,.76-1.23,1.16-1.59,0,.77,.54,1.27,1.21,1.27s1.33-.54,1.33-1.57c0-.87-.5-1.41-1.37-1.41-.97,0-1.72,.82-2.43,1.97v-2h-.88l-2.87,1.89v.44h1.37v5.27c.01,1.09-.17,1.37-1.3,1.53v.61h5.25v-.62Zm-14.32-5.07c0-1.78,.77-2.92,2.39-2.92,2.1,0,2.72,2.57,2.72,4.93,0,1.78-.77,2.92-2.39,2.92-2.1,0-2.72-2.57-2.72-4.93m7.59,.88c0-2.6-1.75-4.77-4.94-4.77-3.21,0-5.13,2.33-5.13,5.02s1.75,4.77,4.94,4.77c3.21,0,5.13-2.33,5.13-5.02m-12.94-6.18c0-2.32,.65-2.92,1.78-3.23v-.61h-4.8v.62c1.13,.32,1.79,.91,1.79,3.23v6.98l-10.12-10.19c-.56-.55-.77-.61-1.13-.61H0v.62c.81,.08,1.29,.39,2.22,1.28,.3,.28,.58,.61,.58,1.17v7.95c.02,2.32-.63,2.92-1.76,3.23v.61H5.83v-.62c-1.13-.32-1.79-.91-1.79-3.23v-7.49l11.39,11.42h.81l-.02-11.12Z" fill="#000"></path></g></svg>
