<svg width="181" height="34" viewBox="0 0 181 34" fill="none" xmlns="http://www.w3.org/2000/svg">
<g clip-path="url(#clip0_70_1405)">
<path fill-rule="evenodd" clip-rule="evenodd" d="M9.59905 27.1089H2.8438C2.50127 27.1146 2.16311 27.0314 1.86236 26.8674C1.56161 26.7034 1.30858 26.4641 1.12799 26.173L0.864024 25.813C0.542905 25.2219 0.465405 24.5287 0.648048 23.8812C0.706645 23.7194 0.778897 23.5629 0.864024 23.4133C1.24798 22.6094 1.61994 21.7935 2.06389 21.0135C2.50784 20.2336 2.77181 19.6697 3.10777 18.9858C3.44374 18.3018 3.56372 17.9539 3.8157 17.4379C4.06767 16.922 4.47562 16.1061 4.81158 15.4462C4.89558 15.2662 4.95557 15.0862 5.03956 14.9182C5.33953 14.3063 5.65149 13.7184 5.93946 13.0584C5.99689 12.8929 6.01737 12.7168 5.99945 12.5425C5.99945 10.9827 5.99945 9.42283 5.99945 7.81501C5.95813 7.46908 6.05278 7.12062 6.26342 6.84312C6.35566 6.75223 6.46078 6.67542 6.57539 6.61514C7.02411 6.45046 7.5022 6.38099 7.97923 6.41117C9.10711 6.41117 10.235 6.41117 11.3749 6.41117C11.7373 6.41549 12.0957 6.48878 12.4307 6.62714C12.6545 6.73232 12.8402 6.90404 12.9626 7.11881C13.0851 7.33358 13.1382 7.58092 13.1147 7.82701C13.1147 9.35084 13.1147 10.8867 13.1147 12.3985C13.1282 12.9896 13.3115 13.5644 13.6426 14.0543C13.7986 14.3303 13.9186 14.6183 14.0506 14.9062L14.3625 15.5062C14.6145 16.0341 14.8785 16.55 15.1304 17.066L16.0663 19.0938C16.3183 19.6097 16.5823 20.1016 16.8342 20.6056C16.9302 20.8216 17.0262 21.0375 17.1342 21.2415C17.5062 22.0094 17.9021 22.7653 18.2261 23.5453C18.3658 23.93 18.4388 24.3358 18.4421 24.7451C18.4203 25.4332 18.1269 26.0846 17.6262 26.5569C17.4733 26.7211 17.2872 26.8509 17.0804 26.9378C16.8735 27.0247 16.6506 27.0666 16.4263 27.0609H9.59905V27.1089ZM9.47906 19.6697H13.7146C14.0626 19.6697 14.1825 19.4897 14.0266 19.1657L13.3426 17.8099C13.2466 17.6059 13.1867 17.3779 13.0907 17.162C12.7307 16.3461 12.3467 15.5302 11.9868 14.7622C11.8668 14.4983 11.7348 14.2463 11.6268 13.9823C11.4751 13.6903 11.3775 13.3732 11.3389 13.0464C11.3389 11.5346 11.3389 10.0228 11.3389 8.51093C11.3389 8.03099 11.2429 7.923 10.7629 7.935H8.2192C7.76326 7.935 7.70326 7.935 7.70326 8.42694V12.3865C7.75046 12.8445 7.68026 13.307 7.49928 13.7304C7.21132 14.2823 7.01934 14.8582 6.75537 15.4102C6.40741 16.2021 6.03545 16.982 5.67549 17.8099C5.44751 18.3018 5.20754 18.7938 4.99156 19.2857C4.94557 19.3972 4.94557 19.5223 4.99156 19.6337C4.99156 19.7057 5.19554 19.7537 5.30353 19.7537H9.47906" fill="#777777"/>
<path d="M95.2339 23.989C94.4445 24.8784 93.4753 25.59 92.3902 26.0768C90.8799 26.7417 89.2403 27.0614 87.5908 27.0127C86.5089 27.0586 85.4289 26.8845 84.4163 26.5009C83.4036 26.1172 82.4794 25.5321 81.6994 24.7809C80.9427 24.0232 80.3507 23.1173 79.9605 22.12C79.5702 21.1228 79.3902 20.0556 79.4317 18.9856V14.858C79.3847 13.7984 79.5518 12.7401 79.9229 11.7465C80.2939 10.7528 80.8614 9.84414 81.5915 9.07466C82.3354 8.32787 83.2257 7.74303 84.2065 7.35689C85.1874 6.97076 86.2375 6.79168 87.2908 6.83091C89.3451 6.66143 91.3858 7.28868 92.9902 8.58271C94.2934 9.84796 95.0584 11.5671 95.1259 13.3822V13.4542H90.8304C90.7579 12.5912 90.4086 11.7748 89.8345 11.1264C89.5074 10.8419 89.1263 10.6262 88.714 10.4922C88.3017 10.3583 87.8667 10.3087 87.4348 10.3465C86.9387 10.3345 86.4471 10.4428 86.002 10.6622C85.5569 10.8816 85.1716 11.2056 84.8791 11.6064C84.2326 12.5537 83.9202 13.6894 83.9912 14.834V18.9496C83.936 20.1218 84.2738 21.2788 84.9511 22.2372C85.268 22.6373 85.6766 22.9551 86.1424 23.164C86.6081 23.3728 87.1172 23.4665 87.6268 23.4371C88.2888 23.4546 88.9502 23.386 89.5946 23.2331C90.0034 23.132 90.3873 22.9483 90.7224 22.6931V19.6455H87.5908V16.6338H95.2339V23.989Z" fill="#777777"/>
<path d="M114.204 18.6136C114.244 19.7173 114.06 20.8176 113.664 21.8485C113.269 22.8795 112.668 23.8198 111.9 24.613C111.117 25.3978 110.179 26.0111 109.146 26.4139C108.114 26.8167 107.008 27.0002 105.901 26.9527C104.789 27.0124 103.677 26.8388 102.637 26.4431C101.597 26.0475 100.65 25.4385 99.8594 24.6554C99.0684 23.8723 98.45 22.9323 98.0439 21.896C97.6378 20.8596 97.4531 19.7497 97.5015 18.6376V15.146C97.4601 14.0422 97.6429 12.9415 98.0388 11.9104C98.4348 10.8792 99.0357 9.93906 99.8053 9.14669C101.44 7.6407 103.582 6.80469 105.805 6.80469C108.027 6.80469 110.169 7.6407 111.804 9.14669C112.575 9.93847 113.178 10.8783 113.576 11.9093C113.974 12.9404 114.159 14.0415 114.12 15.146L114.204 18.6136ZM109.668 15.014C109.716 13.7888 109.367 12.5809 108.672 11.5704C108.335 11.1522 107.908 10.8148 107.423 10.583C106.939 10.3512 106.408 10.2308 105.871 10.2308C105.333 10.2308 104.803 10.3512 104.318 10.583C103.833 10.8148 103.406 11.1522 103.069 11.5704C102.384 12.5846 102.044 13.7917 102.097 15.014V18.6136C102.042 19.8492 102.387 21.0694 103.081 22.0933C103.407 22.5321 103.835 22.8842 104.329 23.1185C104.823 23.3528 105.367 23.4622 105.913 23.4371C106.45 23.4586 106.983 23.3472 107.467 23.1127C107.95 22.8783 108.369 22.5281 108.684 22.0933C109.378 21.0694 109.723 19.8492 109.668 18.6136V15.014Z" fill="#777777"/>
<path d="M123.574 21.3853L123.706 22.0933H123.79L123.922 21.4333L127.81 7.10693H132.573L126.226 26.7008H121.319L114.995 7.10693H119.735L123.574 21.3853Z" fill="#777777"/>
<path d="M136.737 25.3209H146.42V26.7008H135.129V7.10693H136.737V25.3209Z" fill="#777777"/>
<path d="M160.41 21.2294H151.447L149.42 26.7008H147.752L155.191 7.10693H156.715L164.094 26.7008H162.426L160.41 21.2294ZM152.011 19.7895H159.931L155.983 9.1947H155.911L152.011 19.7895Z" fill="#777777"/>
<path d="M167.094 26.7007V7.10691H172.781C174.478 6.99935 176.164 7.45026 177.58 8.39077C178.157 8.85017 178.614 9.44301 178.911 10.1182C179.208 10.7934 179.336 11.5306 179.284 12.2663C179.302 13.2128 179.002 14.138 178.432 14.894C177.844 15.6485 177.028 16.1916 176.105 16.4419C177.247 16.6226 178.282 17.2213 179.008 18.1217C179.746 18.9976 180.146 20.1083 180.136 21.2533C180.178 22.0107 180.046 22.7676 179.751 23.4663C179.456 24.165 179.005 24.7871 178.432 25.2849C177.127 26.2806 175.512 26.7822 173.873 26.7007H167.094ZM168.701 15.9019H173.201C174.372 15.9765 175.532 15.646 176.488 14.966C176.892 14.636 177.211 14.2147 177.42 13.7369C177.628 13.2592 177.721 12.7387 177.688 12.2183C177.729 11.6918 177.642 11.1631 177.433 10.6781C177.224 10.1931 176.899 9.76631 176.488 9.43465C175.421 8.74298 174.158 8.41472 172.889 8.49875H168.701V15.9019ZM168.701 17.2818V25.3329H173.861C175.089 25.4082 176.303 25.028 177.268 24.265C177.678 23.8905 177.999 23.4287 178.207 22.9137C178.415 22.3986 178.504 21.8435 178.468 21.2893C178.489 20.7575 178.399 20.2272 178.205 19.7317C178.011 19.2362 177.717 18.7861 177.34 18.4096C176.903 18.0112 176.389 17.7058 175.83 17.5119C175.271 17.318 174.679 17.2397 174.089 17.2818H168.701Z" fill="#777777"/>
<path d="M42.0073 8.439H35.24V26.761H33.5842V8.439H26.829V7.03516H42.0073V8.439Z" fill="#777777"/>
<path d="M59.8137 26.761H58.1339V17.306H46.8552V26.761H45.1874V7.03516H46.8552V15.8902H58.1339V7.03516H59.8137V26.761Z" fill="#777777"/>
<path d="M75.7235 17.306H66.4965V25.3571H77.1034V26.761H64.8287V7.03516H77.0314V8.439H66.4965V15.8902H75.7235V17.306Z" fill="#777777"/>
<path opacity="0.5" fill-rule="evenodd" clip-rule="evenodd" d="M7.06753 29.6884H17.2064C17.5957 29.6405 17.9902 29.716 18.3343 29.9044C18.6153 30.0874 18.8432 30.3413 18.9948 30.6404C19.1465 30.9395 19.2166 31.2733 19.1982 31.6082C19.1764 32.0931 18.9659 32.5502 18.6117 32.8819C18.2575 33.2137 17.7876 33.3939 17.3024 33.384H2.04009C1.74026 33.4085 1.43901 33.359 1.16283 33.2397C0.886657 33.1204 0.644019 32.9351 0.456265 32.7001C0.148167 32.3766 -0.0236816 31.947 -0.0236816 31.5002C-0.0236816 31.0535 0.148167 30.6239 0.456265 30.3004C0.615673 30.0907 0.823136 29.9224 1.06118 29.8096C1.29923 29.6968 1.56088 29.6429 1.82411 29.6524H7.06753" fill="#777777"/>
<path opacity="0.5" fill-rule="evenodd" clip-rule="evenodd" d="M1.84828 0.615801C1.58505 0.60631 1.32339 0.660213 1.08535 0.772971C0.847302 0.88573 0.639839 1.05404 0.480432 1.26373C0.175031 1.5886 0.00500488 2.01771 0.00500488 2.4636C0.00500488 2.90948 0.175031 3.33859 0.480432 3.66346C0.670804 3.89473 0.914221 4.07659 1.18998 4.19358C1.46573 4.31057 1.76566 4.35921 2.06426 4.33539H17.3506C17.7626 4.34107 18.1649 4.21063 18.4953 3.96432C18.8256 3.718 19.0654 3.36958 19.1775 2.97307C19.2896 2.57657 19.2678 2.15415 19.1154 1.77133C18.9629 1.38851 18.6884 1.06669 18.3344 0.855775C17.9925 0.660611 17.5983 0.576739 17.2066 0.615801H1.84828Z" fill="#777777"/>
</g>
<defs>
<clipPath id="clip0_70_1405">
<rect width="180.124" height="32.7684" fill="white" transform="translate(0 0.615723)"/>
</clipPath>
</defs>
</svg>
