<svg width="169" height="53" viewBox="0 0 169 53" fill="none" xmlns="http://www.w3.org/2000/svg">
<path d="M142.91 50.6574L145.997 43.7851C146.614 42.4271 146.82 42.1391 147.437 41.9745V41.5218H144.186V41.9745C145.256 42.2214 145.379 42.7563 144.885 43.9086L143.651 46.9126L142.087 43.4148C141.758 42.6329 141.799 42.1802 142.951 42.0568V41.563H138.63V42.0568C139.124 42.1802 139.33 42.386 139.783 43.3325L142.54 49.2582L142.087 50.2459C141.84 50.822 141.593 51.2335 141.305 51.4804C141.1 50.822 140.729 50.4516 140.153 50.4516C139.577 50.4516 139.042 50.8631 139.042 51.6039C139.042 52.3857 139.659 52.9619 140.4 52.9619C141.429 52.9619 142.087 52.4269 142.91 50.6574ZM138.507 48.5998L138.26 48.0649C137.807 48.2706 137.437 48.3529 137.067 48.3529C136.285 48.3529 136.079 47.9414 136.079 47.4064V42.4271H138.178V41.4807H136.079V39.9581H135.791L132.828 41.8922V42.4271H134.021V47.8179C134.021 48.8879 134.639 49.464 135.832 49.464C136.779 49.5051 137.684 49.1759 138.507 48.5998ZM132.211 48.8056C131.182 48.641 131.059 48.4352 131.017 47.5299V41.2337H130.194L127.766 42.8386V43.209H128.919V47.571C128.919 48.4764 128.754 48.6821 127.766 48.8467V49.3405H132.17L132.211 48.8056ZM129.865 39.9992C130.565 39.9992 131.1 39.4231 131.1 38.7235C131.1 38.1062 130.606 37.5713 129.989 37.5713C129.248 37.5713 128.713 38.1474 128.713 38.847C128.713 39.5054 129.207 39.9992 129.865 39.9992ZM126.985 46.9126C126.985 45.39 125.709 44.8962 124.516 44.5258C123.363 44.1555 122.54 43.9086 122.54 43.0444C122.54 42.5917 122.869 42.1391 123.569 42.1391C124.392 42.1391 125.133 42.6329 126.038 43.6617L126.45 43.4559L125.832 41.3983H125.585L125.297 41.6453C124.845 41.4395 124.31 41.316 123.734 41.316C122.005 41.316 120.853 42.3448 120.853 43.8263C120.853 45.3489 122.129 45.8015 123.322 46.2131C124.474 46.6246 125.297 46.8303 125.297 47.6945C125.297 48.2295 124.886 48.641 124.104 48.641C122.993 48.641 122.17 47.9003 121.141 46.6246L120.688 46.7892L121.347 49.3405H121.635L122.129 49.0113C122.664 49.2582 123.281 49.4229 123.939 49.4229C125.627 49.5052 126.985 48.5175 126.985 46.9126ZM118.425 48.8467C117.355 48.6821 117.191 48.4352 117.191 47.4476V44.032C117.52 43.4559 117.849 43.0033 118.178 42.7152C118.178 43.3736 118.631 43.7851 119.166 43.7851C119.742 43.7851 120.277 43.3325 120.277 42.4683C120.277 41.7276 119.865 41.316 119.125 41.316C118.302 41.316 117.684 41.9745 117.108 42.9621V41.316H116.368L113.981 42.8798V43.2502H115.133V47.6533C115.133 48.5587 114.968 48.8056 114.063 48.929V49.4229H118.425V48.8467ZM108.096 44.3612C108.096 43.0444 108.672 42.2214 109.742 42.2214C110.483 42.2214 110.977 42.7563 111.183 43.8263L108.137 44.8962C108.096 44.7316 108.096 44.567 108.096 44.3612ZM113.24 47.9002L112.787 47.571C112.335 48.0649 111.676 48.4352 110.894 48.4352C109.372 48.4352 108.508 47.283 108.22 45.8015L113.158 44.1555C113.075 42.4271 111.759 41.4395 110.154 41.4395C107.849 41.4395 106.203 43.2913 106.203 45.5958C106.203 47.8591 107.644 49.5875 110.236 49.5875C111.759 49.5463 112.705 48.8467 113.24 47.9002ZM104.598 43.8263C105.216 42.4683 105.421 42.1802 106.039 42.0156V41.563H102.788V42.0156C103.858 42.2625 103.981 42.7975 103.487 43.9497L102.253 46.9538L100.689 43.4559C100.36 42.674 100.401 42.2214 101.553 42.0979V41.6041H97.2322V42.0979C97.726 42.2214 97.973 42.4271 98.3845 43.3736L101.224 49.5052H102.088L104.598 43.8263ZM97.0676 48.8879C96.0388 48.7233 95.9154 48.5175 95.8742 47.6122V41.316H95.0512L92.6233 42.9209V43.2913H93.7755V47.6533C93.7755 48.5587 93.6109 48.7644 92.6233 48.929V49.4229H97.0265L97.0676 48.8879ZM94.722 40.0815C95.4216 40.0815 95.9565 39.5054 95.9565 38.8058C95.9565 38.1885 95.4627 37.6536 94.8455 37.6536C94.1047 37.6536 93.5698 38.2297 93.5698 38.9293C93.5698 39.5465 94.0636 40.0815 94.722 40.0815ZM86.4094 48.8879C85.463 48.7644 85.3395 48.5175 85.2984 47.6122V43.7851C86.1214 43.0444 86.7798 42.674 87.3971 42.674C88.2201 42.674 88.4259 43.0856 88.4259 43.8263V47.571C88.4259 48.4764 88.2612 48.7233 87.3559 48.8467V49.3405H91.5945V48.8467C90.648 48.7233 90.5246 48.4764 90.4834 47.571V43.6205C90.4834 42.3037 89.9073 41.3572 88.2613 41.3572C87.2325 41.3572 86.2448 41.9745 85.2572 42.8386V41.2749H84.5165L82.1297 42.8386V43.209H83.2819V47.6122C83.2819 48.5175 83.1173 48.7644 82.212 48.8879V49.3817H86.4506L86.4094 48.8879ZM68.4263 39.2585V44.1966C68.4263 47.4064 70.1135 49.6286 74.311 49.6286C78.5084 49.6286 80.1956 47.4064 80.1544 44.2789V40.2873C80.1544 38.3532 80.6894 37.8593 81.6359 37.6124V37.1186H77.6442V37.6124C78.5907 37.8593 79.1257 38.3532 79.1257 40.2873V44.2789C79.1257 47.0772 77.6854 48.3529 74.8871 48.3529C72.1299 48.3529 70.6485 47.0772 70.6485 44.2789V39.2585C70.6485 38.0239 71.0189 37.777 72.0476 37.6536V37.1186H67.0272V37.6536C68.0971 37.777 68.4263 37.9828 68.4263 39.2585ZM163.815 29.8348C162.869 29.7114 162.745 29.4645 162.704 28.5591V24.7321C163.527 23.9914 164.185 23.621 164.803 23.621C165.626 23.621 165.831 24.0325 165.831 24.7732V28.518C165.831 29.4233 165.667 29.6702 164.762 29.7937V30.2875H169V29.7937C168.054 29.6702 167.93 29.4233 167.889 28.518V24.5675C167.889 23.2506 167.313 22.3041 165.667 22.3041C164.638 22.3041 163.65 22.9214 162.663 23.7856V22.2218H161.922L159.535 23.7856V24.156H160.688V28.5591C160.688 29.4645 160.523 29.7114 159.618 29.8348V30.3286H163.856L163.815 29.8348ZM157.231 29.8348C156.161 29.6702 155.996 29.4233 155.996 28.4357V25.0201C156.326 24.444 156.655 23.9914 156.984 23.7033C156.984 24.3617 157.437 24.7732 157.972 24.7732C158.548 24.7732 159.083 24.3206 159.083 23.4564C159.083 22.7157 158.671 22.3041 157.93 22.3041C157.107 22.3041 156.49 22.9626 155.914 23.9502V22.3041H155.173L152.786 23.8679V24.2383H153.939V28.6414C153.939 29.5468 153.774 29.7937 152.869 29.9171V30.411H157.231V29.8348ZM146.902 25.3905C146.902 24.0737 147.478 23.2506 148.548 23.2506C149.289 23.2506 149.782 23.7856 149.988 24.8555L146.943 25.9255C146.902 25.7197 146.902 25.5551 146.902 25.3905ZM152.087 28.8884L151.634 28.5591C151.182 29.053 150.523 29.4233 149.741 29.4233C148.219 29.4233 147.355 28.2711 147.066 26.7896L152.005 25.1436C151.922 23.4152 150.605 22.4276 149.001 22.4276C146.696 22.4276 145.05 24.2794 145.05 26.5839C145.05 28.8472 146.49 30.5756 149.083 30.5756C150.564 30.5344 151.511 29.8348 152.087 28.8884ZM144.474 29.6291L144.227 29.0941C143.774 29.2999 143.404 29.3822 143.034 29.3822C142.252 29.3822 142.046 28.9707 142.046 28.4357V23.4564H144.145V22.5099H142.046V20.9873H141.758L138.795 22.9214V23.4564H139.988V28.8472C139.988 29.9171 140.606 30.4933 141.799 30.4933C142.746 30.5344 143.651 30.2052 144.474 29.6291ZM138.219 27.9419C138.219 26.4193 136.943 25.9255 135.75 25.5551C134.598 25.1847 133.775 24.9378 133.775 24.0737C133.775 23.621 134.104 23.1683 134.803 23.1683C135.626 23.1683 136.367 23.6621 137.272 24.6909L137.684 24.4852L137.067 22.4276H136.82L136.532 22.6745C136.079 22.4688 135.544 22.3453 134.968 22.3453C133.24 22.3453 132.087 23.3741 132.087 24.8555C132.087 26.3781 133.363 26.8308 134.556 27.2423C135.709 27.6538 136.532 27.8596 136.532 28.7238C136.532 29.2587 136.12 29.6702 135.338 29.6702C134.227 29.6702 133.404 28.9295 132.375 27.6538L131.923 27.8184L132.581 30.3698H132.869L133.363 30.0406C133.898 30.2875 134.515 30.4521 135.174 30.4521C136.861 30.5344 138.219 29.5468 138.219 27.9419ZM125.544 28.3122C125.544 27.4892 125.915 27.0777 127.849 26.5427V28.9295C127.396 29.2999 126.985 29.4645 126.573 29.4645C125.915 29.4645 125.544 29.0941 125.544 28.3122ZM129.166 30.4933C129.865 30.4933 130.647 30.164 131.141 29.7937L130.976 29.341C130.153 29.5056 129.865 29.3822 129.865 28.8472V24.444C129.865 23.1272 129.289 22.4276 127.437 22.4276C125.339 22.4276 123.816 23.5387 123.816 24.6086C123.816 25.1024 124.145 25.5551 124.762 25.5551C125.421 25.5551 125.75 25.1024 125.874 24.6498C125.956 24.156 125.791 23.7444 125.544 23.5387C125.956 23.3329 126.367 23.2506 126.779 23.2506C127.478 23.2506 127.849 23.4975 127.849 24.156V25.802C124.886 26.5427 123.528 27.16 123.569 28.7649C123.569 29.9583 124.351 30.6167 125.585 30.6167C126.367 30.6167 127.232 30.2875 128.013 29.6702C128.055 30.2052 128.466 30.4933 129.166 30.4933ZM117.479 25.4316C117.479 24.1148 118.055 23.2918 119.125 23.2918C119.865 23.2918 120.359 23.8267 120.565 24.8967L117.52 25.9666C117.479 25.802 117.479 25.5963 117.479 25.4316ZM122.623 28.9295L122.17 28.6003C121.717 29.0941 121.059 29.4645 120.277 29.4645C118.754 29.4645 117.89 28.3122 117.602 26.8308L122.54 25.1847C122.458 23.4564 121.141 22.4688 119.536 22.4688C117.232 22.4688 115.586 24.3206 115.586 26.625C115.586 28.8884 117.026 30.6167 119.619 30.6167C121.141 30.5756 122.088 29.876 122.623 28.9295ZM109.495 29.9171C108.549 29.7937 108.425 29.5468 108.384 28.6414V24.8144C109.166 24.0737 109.783 23.7033 110.483 23.7033C111.306 23.7033 111.512 24.1148 111.512 24.8555V28.6003C111.512 29.5056 111.347 29.7525 110.442 29.876V30.3698H114.68V29.876C113.734 29.7525 113.61 29.5056 113.569 28.6003V24.6498C113.569 23.3329 112.993 22.3865 111.347 22.3865C110.36 22.3865 109.372 23.0037 108.384 23.8267V17.2837H107.767L105.133 19.012V19.3824H106.327V28.6003C106.327 29.5056 106.162 29.7525 105.257 29.876V30.3698H109.495V29.9171ZM104.763 29.7114L104.516 29.1764C104.063 29.3822 103.693 29.4645 103.323 29.4645C102.541 29.4645 102.335 29.053 102.335 28.518V23.5387H104.434V22.5922H102.335V21.0696H102.047L99.084 23.0037V23.5387H100.277V28.9295C100.277 29.9994 100.895 30.5756 102.088 30.5756C103.076 30.6167 103.981 30.2875 104.763 29.7114ZM96.6973 29.9583C95.6273 29.7937 95.4627 29.5468 95.4627 28.5591V25.1436C95.7919 24.5675 96.1211 24.1148 96.4504 23.8267C96.4504 24.4852 96.903 24.8967 97.438 24.8967C97.973 24.8967 98.5491 24.444 98.5491 23.5798C98.5491 22.8391 98.1376 22.4276 97.3968 22.4276C96.5738 22.4276 95.9565 23.086 95.3804 24.0737V22.4276H94.6397L92.2529 23.9914V24.3617H93.4052V28.7649C93.4052 29.6702 93.2406 29.9171 92.3352 30.0406V30.5344H96.6973V29.9583ZM84.7634 25.7197C84.7634 24.2383 85.4218 23.2918 86.7387 23.2918C88.467 23.2918 89.002 25.4316 89.002 27.4069C89.002 28.8884 88.3436 29.8348 87.0267 29.8348C85.2984 29.8348 84.7634 27.695 84.7634 25.7197ZM91.1007 26.4604C91.1007 24.3206 89.6604 22.4688 86.9856 22.5099C84.3107 22.5099 82.7058 24.444 82.7058 26.7073C82.7058 28.8472 84.1461 30.699 86.821 30.6579C89.4958 30.6167 91.1007 28.6826 91.1007 26.4604ZM80.3191 21.3165C80.3191 19.3824 80.854 18.8886 81.8005 18.6417V18.1479H77.8088V18.6417C78.7553 18.8886 79.2903 19.3824 79.2903 21.3165V27.1189L70.8543 18.6417C70.4016 18.189 70.1958 18.1479 69.9078 18.1479H66.7803V18.6417C67.4387 18.724 67.8502 18.9709 68.6321 19.7116C68.879 19.9585 69.1259 20.2054 69.1259 20.6992V27.3246C69.1259 29.2587 68.5909 29.7525 67.6445 29.9994V30.4933H71.6361V29.9994C70.6896 29.7525 70.1547 29.2587 70.1547 27.3246V21.1108L79.6195 30.6167H80.2779L80.3191 21.3165Z" fill="#0D1321"/>
<path d="M56.7393 14.1149C56.7393 6.04924 59.4553 3.41556 64.8872 1.35799V0H47.1099V1.31684C52.5419 3.37441 55.2578 6.00809 55.2578 14.0737V37.7357L17.6044 1.81066C15.876 0.205757 15.4234 0.0411514 14.3123 0.0411514H0.15625V1.35799C3.28375 1.6872 5.13556 2.55138 9.62105 6.91342L11.3494 8.55947V35.5547C11.3494 43.6204 8.63342 46.254 3.20145 48.3116V49.6285H20.9788V48.3116C15.5468 46.254 12.8308 43.6204 12.8308 35.5547V9.79401L55.4224 49.9165H56.7393V14.1149Z" fill="#D4202D"/>
</svg>
